# xmcd
# 
# Track frame offsets:
#     150
#     14627
#     25160
#     42275
#     54997
#     69375
#     83617
#     97880
#     116247
#     128865
#     142930
#     157572
#     171315
#     186100
# 
# Disc length: 2701
# 
# Revision: 1
# Processed by: cddbd v1.5.2PL0 Copyright (c) Steve Scherf et al.
# Submitted via: fre:ac v1.0.17
# 
DISCID=ac0a8b0e
DTITLE=Becky Hobbs - Swedish coffee and American sugar
DYEAR=2000
DGENRE=Country
TTITLE0=That's what your lovin' does to me
TTITLE1=Hello goodbye
TTITLE2=I can't be faithful anymore
TTITLE3=Dance all your trouble away
TTITLE4=I ain't had rock in ages
TTITLE5=I'll take the fifth
TTITLE6=The devil may care
TTITLE7=Barbara
TTITLE8=Lovin' fightin' or cryin'
TTITLE9=Dreamin' of a brand new day
TTITLE10=Don't cry for me (when I'm gone)
TTITLE11=If you ain't gonna be mine
TTITLE12=Reasons why I'm single
TTITLE13=Brotherhood of man
EXTD=
EXTT0=
EXTT1=
EXTT2=
EXTT3=
EXTT4=
EXTT5=
EXTT6=
EXTT7=
EXTT8=
EXTT9=
EXTT10=
EXTT11=
EXTT12=
EXTT13=
PLAYORDER=
